<svg width="120" height="90" viewBox="0 0 120 90" fill="none" xmlns="http://www.w3.org/2000/svg">
<g filter="url(#filter0_d_7_29)">
<path d="M23.193 2.79429C54.117 -0.931427 65.7135 -0.931442 96.6374 2.79427C96.6374 12.6154 96.6374 27.9429 96.6374 27.9429L96.6374 87.5545H21.2602L22.2266 27.9429C22.2266 27.9429 23.5704 11.5242 23.193 2.79429Z" fill="#DEDEDE"/>
<path d="M23.193 2.79429C14.8903 5.70426 0 13.04 0 13.04L7.731 33.5315L22.2266 27.9429C22.2266 27.9429 23.5704 11.5242 23.193 2.79429Z" fill="#DEDEDE"/>
<path d="M116.931 13.04L96.6374 2.79427V27.9429L112.099 33.5315L116.931 13.04Z" fill="#DEDEDE"/>
<path d="M21.7684 87.0545L22.7263 27.9673L22.7288 27.9358L22.74 27.7961C22.7498 27.6733 22.7641 27.4923 22.7821 27.2589C22.8182 26.7921 22.8693 26.1157 22.9294 25.2768C23.0496 23.5992 23.206 21.2713 23.3506 18.6701C23.6293 13.6538 23.8655 7.60032 23.7107 3.23563C54.1058 -0.412584 65.735 -0.41189 96.1374 3.23774V3.25859V3.31718V3.37588V3.4347V3.49363V3.55268V3.61184V3.67111V3.7305V3.79V3.84961V3.90933V3.96915V4.02909V4.08913V4.14927V4.20952V4.26988V4.33033V4.39089V4.45155V4.51231V4.57317V4.63413V4.69518V4.75633V4.81758V4.87892V4.94035V5.00187V5.06349V5.1252V5.187V5.24888V5.31086V5.37292V5.43506V5.4973V5.55961V5.62201V5.68449V5.74706V5.8097V5.87242V5.93522V5.9981V6.06106V6.12409V6.18719V6.25037V6.31363V6.37695V6.44035V6.50381V6.56735V6.63095V6.69462V6.75836V6.82216V6.88603V6.94996V7.01396V7.07801V7.14213V7.20631V7.27054V7.33483V7.39918V7.46359V7.52805V7.59257V7.65714V7.72176V7.78643V7.85116V7.91593V7.98075V8.04563V8.11054V8.17551V8.24051V8.30557V8.37066V8.4358V8.50098V8.5662V8.63145V8.69675V8.76209V8.82746V8.89286V8.95831V9.02378V9.08929V9.15483V9.2204V9.286V9.35163V9.41729V9.48298V9.54869V9.61443V9.68019V9.74598V9.81179V9.87762V9.94347V10.0093V10.0752V10.1411V10.2071V10.273V10.339V10.4049V10.4709V10.5369V10.6029V10.6689V10.735V10.801V10.867V10.9331V10.9992V11.0652V11.1313V11.1974V11.2634V11.3295V11.3956V11.4616V11.5277V11.5938V11.6598V11.7259V11.792V11.858V11.9241V11.9901V12.0561V12.1221V12.1881V12.2541V12.3201V12.3861V12.452V12.518V12.5839V12.6498V12.7157V12.7815V12.8474V12.9132V12.979V13.0448V13.1105V13.1763V13.242V13.3076V13.3733V13.4389V13.5045V13.5701V13.6356V13.7011V13.7665V13.832V13.8974V13.9627V14.028V14.0933V14.1586V14.2238V14.2889V14.3541V14.4191V14.4842V14.5492V14.6141V14.679V14.7439V14.8087V14.8734V14.9381V15.0028V15.0674V15.132V15.1964V15.2609V15.3253V15.3896V15.4539V15.5181V15.5822V15.6463V15.7104V15.7743V15.8383V15.9021V15.9659V16.0296V16.0932V16.1568V16.2203V16.2838V16.3471V16.4104V16.4737V16.5368V16.5999V16.6629V16.7258V16.7887V16.8515V16.9142V16.9768V17.0393V17.1018V17.1641V17.2264V17.2886V17.3507V17.4128V17.4747V17.5366V17.5983V17.66V17.7216V17.7831V17.8445V17.9058V17.967V18.0281V18.0891V18.15V18.2109V18.2716V18.3322V18.3927V18.4532V18.5135V18.5737V18.6338V18.6938V18.7537V18.8135V18.8732V18.9327V18.9922V19.0515V19.1108V19.1699V19.2289V19.2878V19.3466V19.4052V19.4638V19.5222V19.5805V19.6387V19.6967V19.7547V19.8125V19.8702V19.9277V19.9852V20.0425V20.0997V20.1567V20.2136V20.2704V20.3271V20.3836V20.44V20.4963V20.5524V20.6084V20.6642V20.7199V20.7755V20.8309V20.8862V20.9414V20.9964V21.0512V21.1059V21.1605V21.2149V21.2692V21.3233V21.3773V21.4311V21.4848V21.5383V21.5917V21.6449V21.698V21.7509V21.8036V21.8562V21.9086V21.9609V22.013V22.0649V22.1167V22.1683V22.2198V22.2711V22.3222V22.3732V22.424V22.4746V22.525V22.5753V22.6254V22.6753V22.7251V22.7747V22.8241V22.8733V22.9224V22.9712V23.0199V23.0684V23.1168V23.1649V23.2129V23.2607V23.3083V23.3557V23.4029V23.45V23.4968V23.5435V23.5899V23.6362V23.6823V23.7282V23.7739V23.8194V23.8647V23.9098V23.9547V23.9994V24.0439V24.0882V24.1324V24.1763V24.22V24.2635V24.3068V24.3498V24.3927V24.4354V24.4778V24.5201V24.5621V24.604V24.6456V24.687V24.7282V24.7691V24.8099V24.8504V24.8907V24.9308V24.9707V25.0104V25.0498V25.089V25.128V25.1668V25.2053V25.2436V25.2817V25.3195V25.3572V25.3945V25.4317V25.4686V25.5053V25.5418V25.578V25.614V25.6497V25.6853V25.7205V25.7556V25.7904V25.8249V25.8592V25.8933V25.9271V25.9607V25.994V26.0271V26.0599V26.0925V26.1248V26.1569V26.1887V26.2203V26.2516V26.2827V26.3135V26.3441V26.3744V26.4044V26.4342V26.4637V26.4929V26.5219V26.5507V26.5791V26.6073V26.6353V26.6629V26.6903V26.7175V26.7443V26.7709V26.7972V26.8233V26.8491V26.8746V26.8998V26.9247V26.9494V26.9738V26.9979V27.0217V27.0453V27.0686V27.0915V27.1142V27.1367V27.1588V27.1806V27.2022V27.2235V27.2444V27.2651V27.2855V27.3056V27.3255V27.345V27.3642V27.3831V27.4018V27.4201V27.4381V27.4559V27.4733V27.4904V27.5073V27.5238V27.54V27.5559V27.5716V27.5869V27.6019V27.6166V27.6309V27.645V27.6588V27.6722V27.6853V27.6982V27.7107V27.7228V27.7347V27.7463V27.7575V27.7684V27.779V27.7892V27.7992V27.8088V27.8181V27.8271V27.8357V27.844V27.852V27.8597V27.867V27.874V27.8807V27.887V27.893V27.8987V27.904V27.909V27.9136V27.9179V27.9219V27.9255V27.9288V27.9318V27.9344V27.9366V27.9386V27.9401V27.9413V27.9422V27.9427V27.9429L96.1374 87.0545H21.7684ZM97.1374 3.61184V3.60682L109.531 9.86394L114.65 12.4481L116.159 13.2102L116.354 13.3088L111.742 32.8705L97.1374 27.592V27.5869V27.5716V27.5559V27.54V27.5238V27.5073V27.4904V27.4733V27.4559V27.4381V27.4201V27.4018V27.3831V27.3642V27.345V27.3255V27.3056V27.2855V27.2651V27.2444V27.2235V27.2022V27.1806V27.1588V27.1367V27.1142V27.0915V27.0686V27.0453V27.0217V26.9979V26.9738V26.9494V26.9247V26.8998V26.8746V26.8491V26.8233V26.7972V26.7709V26.7443V26.7175V26.6903V26.6629V26.6353V26.6073V26.5791V26.5507V26.5219V26.4929V26.4637V26.4342V26.4044V26.3744V26.3441V26.3135V26.2827V26.2516V26.2203V26.1887V26.1569V26.1248V26.0925V26.0599V26.0271V25.994V25.9607V25.9271V25.8933V25.8592V25.8249V25.7904V25.7556V25.7205V25.6853V25.6497V25.614V25.578V25.5418V25.5053V25.4686V25.4317V25.3945V25.3572V25.3195V25.2817V25.2436V25.2053V25.1668V25.128V25.089V25.0498V25.0104V24.9707V24.9308V24.8907V24.8504V24.8099V24.7691V24.7282V24.687V24.6456V24.604V24.5621V24.5201V24.4778V24.4354V24.3927V24.3498V24.3068V24.2635V24.22V24.1763V24.1324V24.0882V24.0439V23.9994V23.9547V23.9098V23.8647V23.8194V23.7739V23.7282V23.6823V23.6362V23.5899V23.5435V23.4968V23.45V23.4029V23.3557V23.3083V23.2607V23.2129V23.1649V23.1168V23.0684V23.0199V22.9712V22.9224V22.8733V22.8241V22.7747V22.7251V22.6753V22.6254V22.5753V22.525V22.4746V22.424V22.3732V22.3222V22.2711V22.2198V22.1683V22.1167V22.0649V22.013V21.9609V21.9086V21.8562V21.8036V21.7509V21.698V21.6449V21.5917V21.5383V21.4848V21.4311V21.3773V21.3233V21.2692V21.2149V21.1605V21.1059V21.0512V20.9964V20.9414V20.8862V20.8309V20.7755V20.7199V20.6642V20.6084V20.5524V20.4963V20.44V20.3836V20.3271V20.2704V20.2136V20.1567V20.0997V20.0425V19.9852V19.9277V19.8702V19.8125V19.7547V19.6967V19.6387V19.5805V19.5222V19.4638V19.4052V19.3466V19.2878V19.2289V19.1699V19.1108V19.0515V18.9922V18.9327V18.8732V18.8135V18.7537V18.6938V18.6338V18.5737V18.5135V18.4532V18.3927V18.3322V18.2716V18.2109V18.15V18.0891V18.0281V17.967V17.9058V17.8445V17.7831V17.7216V17.66V17.5983V17.5366V17.4747V17.4128V17.3507V17.2886V17.2264V17.1641V17.1018V17.0393V16.9768V16.9142V16.8515V16.7887V16.7258V16.6629V16.5999V16.5368V16.4737V16.4104V16.3471V16.2838V16.2203V16.1568V16.0932V16.0296V15.9659V15.9021V15.8383V15.7743V15.7104V15.6463V15.5822V15.5181V15.4539V15.3896V15.3253V15.2609V15.1964V15.132V15.0674V15.0028V14.9381V14.8734V14.8087V14.7439V14.679V14.6141V14.5492V14.4842V14.4191V14.3541V14.2889V14.2238V14.1586V14.0933V14.028V13.9627V13.8974V13.832V13.7665V13.7011V13.6356V13.5701V13.5045V13.4389V13.3733V13.3076V13.242V13.1763V13.1105V13.0448V12.979V12.9132V12.8474V12.7815V12.7157V12.6498V12.5839V12.518V12.452V12.3861V12.3201V12.2541V12.1881V12.1221V12.0561V11.9901V11.9241V11.858V11.792V11.7259V11.6598V11.5938V11.5277V11.4616V11.3956V11.3295V11.2634V11.1974V11.1313V11.0652V10.9992V10.9331V10.867V10.801V10.735V10.6689V10.6029V10.5369V10.4709V10.4049V10.339V10.273V10.2071V10.1411V10.0752V10.0093V9.94347V9.87762V9.81179V9.74598V9.68019V9.61443V9.54869V9.48298V9.41729V9.35163V9.286V9.2204V9.15483V9.08929V9.02378V8.95831V8.89286V8.82746V8.76209V8.69675V8.63145V8.5662V8.50098V8.4358V8.37066V8.30557V8.24051V8.17551V8.11054V8.04563V7.98075V7.91593V7.85116V7.78643V7.72176V7.65714V7.59257V7.52805V7.46359V7.39918V7.33483V7.27054V7.20631V7.14213V7.07801V7.01396V6.94996V6.88603V6.82216V6.75836V6.69462V6.63095V6.56735V6.50381V6.44035V6.37695V6.31363V6.25037V6.18719V6.12409V6.06106V5.9981V5.93522V5.87242V5.8097V5.74706V5.68449V5.62201V5.55961V5.4973V5.43506V5.37292V5.31086V5.24888V5.187V5.1252V5.06349V5.00187V4.94035V4.87892V4.81758V4.75633V4.69518V4.63413V4.57317V4.51231V4.45155V4.39089V4.33033V4.26988V4.20952V4.14927V4.08913V4.02909V3.96915V3.90933V3.84961V3.79V3.7305V3.67111V3.61184ZM21.7533 27.5895L8.02104 32.8838L0.628323 13.289C0.701388 13.2533 0.783764 13.2131 0.87503 13.1686C1.29769 12.9627 1.91096 12.6652 2.67292 12.299C4.19692 11.5666 6.31527 10.5599 8.69258 9.46236C13.2117 7.37608 18.6489 4.97013 22.7189 3.49427C22.8564 7.79002 22.6261 13.6839 22.3521 18.6146C22.2079 21.2092 22.0519 23.5316 21.932 25.2054C21.872 26.0422 21.821 26.7167 21.7851 27.1819C21.7726 27.3438 21.7619 27.4803 21.7533 27.5895Z" stroke="black" stroke-opacity="0.2"/>
<mask id="path-3-inside-1_7_29" fill="white">
<path fill-rule="evenodd" clip-rule="evenodd" d="M57.9825 21.8993C66.5219 21.8993 73.4445 13.976 73.4445 4.20209C73.4445 2.91408 73.3242 1.6582 73.0959 0.448364C79.9072 0.896683 87.4123 1.67656 96.6374 2.788L116.931 13.0337L112.099 33.5252L96.6374 27.9366L96.6374 87.5482H21.2602L22.2266 27.9366L7.731 33.5252L0 13.0337C0 13.0337 14.8903 5.69798 23.193 2.78801C30.6857 1.8853 37.0437 1.2013 42.8169 0.73603C42.6224 1.85689 42.5205 3.01586 42.5205 4.20209C42.5205 13.976 49.443 21.8993 57.9825 21.8993Z"/>
</mask>
<path fill-rule="evenodd" clip-rule="evenodd" d="M57.9825 21.8993C66.5219 21.8993 73.4445 13.976 73.4445 4.20209C73.4445 2.91408 73.3242 1.6582 73.0959 0.448364C79.9072 0.896683 87.4123 1.67656 96.6374 2.788L116.931 13.0337L112.099 33.5252L96.6374 27.9366L96.6374 87.5482H21.2602L22.2266 27.9366L7.731 33.5252L0 13.0337C0 13.0337 14.8903 5.69798 23.193 2.78801C30.6857 1.8853 37.0437 1.2013 42.8169 0.73603C42.6224 1.85689 42.5205 3.01586 42.5205 4.20209C42.5205 13.976 49.443 21.8993 57.9825 21.8993Z" fill="white"/>
<path d="M96.4121 3.23434L116.706 13.4801L117.157 12.5874L96.8628 2.34166L96.4121 3.23434ZM73.0959 0.448364L73.1616 -0.549477L71.874 -0.634226L72.1133 0.63379L73.0959 0.448364ZM96.6374 2.788L97.0881 1.89532L96.9314 1.81618L96.7571 1.79518L96.6374 2.788ZM116.931 13.0337L117.905 13.2633L118.085 12.4962L117.382 12.1411L116.931 13.0337ZM112.099 33.5252L111.76 34.4657L112.815 34.8472L113.073 33.7547L112.099 33.5252ZM96.6374 27.9366L96.9774 26.9962L95.6374 26.5119V27.9366H96.6374ZM96.6374 87.5482L96.6374 88.5482H97.6374L97.6374 87.5482H96.6374ZM21.2602 87.5482L20.2604 87.532L20.2439 88.5482H21.2602V87.5482ZM22.2266 27.9366L23.2265 27.9529L23.2505 26.4702L21.8669 27.0036L22.2266 27.9366ZM7.731 33.5252L6.79537 33.8782L7.15091 34.8206L8.09072 34.4583L7.731 33.5252ZM0 13.0337L-0.441933 12.1367L-1.25594 12.5377L-0.935626 13.3867L0 13.0337ZM23.193 2.78801L23.0734 1.79519L22.9651 1.80823L22.8622 1.8443L23.193 2.78801ZM42.8169 0.73603L43.8022 0.906964L44.0227 -0.364393L42.7366 -0.260738L42.8169 0.73603ZM72.4445 4.20209C72.4445 13.5548 65.847 20.8993 57.9825 20.8993V22.8993C67.1967 22.8993 74.4445 14.3972 74.4445 4.20209H72.4445ZM72.1133 0.63379C72.33 1.78255 72.4445 2.97635 72.4445 4.20209H74.4445C74.4445 2.85181 74.3184 1.53386 74.0786 0.262939L72.1133 0.63379ZM96.7571 1.79518C87.525 0.682907 79.9994 -0.099417 73.1616 -0.549477L73.0303 1.44621C79.8151 1.89278 87.2996 2.67021 96.5178 3.78082L96.7571 1.79518ZM117.382 12.1411L97.0881 1.89532L96.1867 3.68068L116.481 13.9264L117.382 12.1411ZM113.073 33.7547L117.905 13.2633L115.958 12.8042L111.126 33.2957L113.073 33.7547ZM96.2975 28.8771L111.76 34.4657L112.439 32.5848L96.9774 26.9962L96.2975 28.8771ZM97.6374 87.5482L97.6374 27.9366H95.6374L95.6374 87.5482H97.6374ZM21.2602 88.5482H96.6374L96.6374 86.5482H21.2602V88.5482ZM21.2267 27.9204L20.2604 87.532L22.2601 87.5644L23.2265 27.9529L21.2267 27.9204ZM8.09072 34.4583L22.5863 28.8697L21.8669 27.0036L7.37127 32.5922L8.09072 34.4583ZM-0.935626 13.3867L6.79537 33.8782L8.66662 33.1722L0.935626 12.6808L-0.935626 13.3867ZM22.8622 1.8443C18.6613 3.31666 12.8247 5.89634 8.06385 8.0942C5.67785 9.19572 3.55229 10.2059 2.0232 10.9407C1.25857 11.3082 0.642856 11.6069 0.218046 11.8139C0.00563569 11.9174 -0.159063 11.9979 -0.270805 12.0527C-0.326676 12.0801 -0.369309 12.101 -0.398049 12.1151C-0.412419 12.1222 -0.423315 12.1275 -0.430657 12.1312C-0.434327 12.133 -0.437109 12.1343 -0.438992 12.1353C-0.439933 12.1357 -0.44065 12.1361 -0.441141 12.1363C-0.441386 12.1364 -0.441584 12.1365 -0.441707 12.1366C-0.441848 12.1367 -0.441933 12.1367 0 13.0337C0.441933 13.9308 0.441962 13.9308 0.442047 13.9307C0.442151 13.9307 0.442293 13.9306 0.442501 13.9305C0.442917 13.9303 0.443558 13.93 0.444424 13.9296C0.446156 13.9287 0.448787 13.9274 0.452305 13.9257C0.459341 13.9222 0.469929 13.917 0.483986 13.9101C0.512101 13.8963 0.554094 13.8757 0.60931 13.8486C0.719743 13.7945 0.883062 13.7146 1.09403 13.6118C1.51596 13.4063 2.12843 13.1091 2.88949 12.7434C4.4118 12.0118 6.52774 11.0062 8.90215 9.91004C13.6622 7.71253 19.422 5.16934 23.5237 3.73173L22.8622 1.8443ZM42.7366 -0.260738C36.9447 0.206041 30.572 0.891753 23.0734 1.79519L23.3126 3.78083C30.7993 2.87884 37.1427 2.19657 42.8972 1.7328L42.7366 -0.260738ZM43.5205 4.20209C43.5205 3.07321 43.6175 1.97142 43.8022 0.906964L41.8316 0.565097C41.6274 1.74236 41.5205 2.95852 41.5205 4.20209H43.5205ZM57.9825 20.8993C50.1179 20.8993 43.5205 13.5548 43.5205 4.20209H41.5205C41.5205 14.3972 48.7682 22.8993 57.9825 22.8993V20.8993Z" fill="black" fill-opacity="0.2" mask="url(#path-3-inside-1_7_29)"/>
</g>
<defs>
<filter id="filter0_d_7_29" x="0" y="0" width="119.931" height="89.5546" filterUnits="userSpaceOnUse" color-interpolation-filters="sRGB">
<feFlood flood-opacity="0" result="BackgroundImageFix"/>
<feColorMatrix in="SourceAlpha" type="matrix" values="0 0 0 0 0 0 0 0 0 0 0 0 0 0 0 0 0 0 127 0" result="hardAlpha"/>
<feOffset dx="3" dy="2"/>
<feComposite in2="hardAlpha" operator="out"/>
<feColorMatrix type="matrix" values="0 0 0 0 0 0 0 0 0 0 0 0 0 0 0 0 0 0 0.25 0"/>
<feBlend mode="normal" in2="BackgroundImageFix" result="effect1_dropShadow_7_29"/>
<feBlend mode="normal" in="SourceGraphic" in2="effect1_dropShadow_7_29" result="shape"/>
</filter>
</defs>
</svg>
