<svg width="33" height="82" viewBox="0 0 33 82" fill="none" xmlns="http://www.w3.org/2000/svg">
<path d="M0.943877 44.3722L29.5477 81.2716C29.8778 81.6972 30.2641 81.9464 30.6648 81.9923C31.0655 82.0381 31.4652 81.8789 31.8208 81.5318C32.1764 81.1847 32.4742 80.6629 32.6821 80.023C32.8899 79.3831 32.9999 78.6494 33 77.9014L33 4.10265C33.0003 3.35432 32.8906 2.62012 32.6829 1.97963C32.4752 1.33914 32.1774 0.816783 31.8218 0.469172C31.4661 0.121562 31.0662 -0.0380441 30.6653 0.00765241C30.2645 0.0533489 29.878 0.302605 29.5477 0.728406L0.943877 37.6278C0.652467 38.0068 0.414478 38.5112 0.250146 39.0984C0.0858147 39.6855 0 40.3378 0 41C0 41.6622 0.0858147 42.3145 0.250146 42.9016C0.414478 43.4887 0.652467 43.9932 0.943877 44.3722Z" fill="#AD90FF"/>
</svg>
