<svg width="33" height="81" viewBox="0 0 33 81" fill="none" xmlns="http://www.w3.org/2000/svg">
<path d="M32.0561 43.8311L3.45226 80.2805C3.12216 80.7009 2.73587 80.9471 2.3352 80.9924C1.93454 81.0377 1.53477 80.8804 1.1792 80.5375C0.823623 80.1946 0.525788 79.6792 0.317934 79.0471C0.110081 78.415 0.000133624 77.6903 -1.84774e-06 76.9514L-1.84774e-06 4.05262C-0.000267963 3.31341 0.109383 2.58817 0.317076 1.95549C0.524768 1.32281 0.822578 0.806822 1.17823 0.463451C1.53387 0.120079 1.9338 -0.0375802 2.33465 0.00755908C2.73551 0.0526983 3.12201 0.298915 3.45226 0.719523L32.0561 37.1689C32.3475 37.5433 32.5855 38.0416 32.7499 38.6215C32.9142 39.2015 33 39.8459 33 40.5C33 41.1541 32.9142 41.7985 32.7499 42.3784C32.5855 42.9584 32.3475 43.4567 32.0561 43.8311Z" fill="#AD90FF"/>
</svg>
